<svg xmlns="http://www.w3.org/2000/svg" width="1500" height="500" viewBox="0 0 1500 500" role="img" aria-labelledby="title desc">
  <title id="title">Agenvora — Coordinate agents. Verify the work.</title>
  <desc id="desc">A clean Agenvora brand banner.</desc>
  <rect width="1500" height="500" fill="#073f31"/>

  <g fill="none" stroke="#2a6a58" stroke-width="2">
    <path d="M0 250H102"/>
    <path d="M1398 250H1500"/>
  </g>
  <g fill="#c8f169" transform="translate(160 250)">
    <path d="M0 -86 36 -50 0 -14 -36 -50Z"/>
    <path d="M24 10 60 -26 96 10 60 46Z"/>
    <path d="M0 14 36 50 0 86 -36 50Z"/>
    <path d="M-24 10 -60 46 -96 10 -60 -26Z"/>
  </g>
  <g fill="#c8f169" transform="translate(1340 250)">
    <path d="M0 -86 36 -50 0 -14 -36 -50Z"/>
    <path d="M24 10 60 -26 96 10 60 46Z"/>
    <path d="M0 14 36 50 0 86 -36 50Z"/>
    <path d="M-24 10 -60 46 -96 10 -60 -26Z"/>
  </g>

  <g text-anchor="middle" font-family="Segoe UI, Arial, sans-serif">
    <text x="750" y="218" fill="#f6faf2" font-size="64" font-weight="700" letter-spacing="8">AGENVORA</text>
    <text x="750" y="286" fill="#c8f169" font-size="30" font-weight="400">Coordinate agents. Verify the work.</text>
  </g>
</svg>
